<svg id="Layer_1" data-name="Layer 1" xmlns="http://www.w3.org/2000/svg" viewBox="0 0 283.46 99.44">
  <g>
    <g>
      <path d="M156,77.68q0,6-2.84,9.52a9.58,9.58,0,0,1-7.91,3.54H118.58v-8h21.88q5.68,0,5.68-4.17,0-4-5.68-4H129.17A13.3,13.3,0,0,1,122,73q-4.12-2.64-4.13-9.39Q117.88,51,131.66,51h22.25v8H133.85c-3.68,0-5.51,1.14-5.51,3.43v.7c.2,2.33,1.89,3.5,5,3.5H143c3.9,0,6.88.68,8.95,2Q156,71.38,156,77.68Z" transform="translate(-14.17 -21.15)" fill="#022d3d"/>
      <rect x="192.25" y="15.29" width="10.51" height="54.3" fill="#022d3d"/>
      <path d="M256.67,52.77Q253.33,51,247,51H225.72v8h17.37q5.61,0,7.56,1.64t1.95,6.16H238.73q-8.17,0-11.92,2.84t-3.74,9.44q0,5.44,3.19,8.55c2.12,2.07,5.11,3.11,8.94,3.11h27.85V65.84Q263.05,56.19,256.67,52.77ZM252.12,82H239.87a7.44,7.44,0,0,1-4-.94,3.51,3.51,0,0,1-1.56-3.19,3.58,3.58,0,0,1,2.05-3.61,11,11,0,0,1,4.24-.58h11.55Z" transform="translate(-14.17 -21.15)" fill="#022d3d"/>
      <path d="M240.57,73.68a11,11,0,0,0-4.24.58,3.58,3.58,0,0,0-2.05,3.61,3.51,3.51,0,0,0,1.56,3.19,7.44,7.44,0,0,0,4,.94h12.25V73.68ZM251,80.91H239.87a6.45,6.45,0,0,1-3.44-.76,2.48,2.48,0,0,1-1.06-2.28,2.56,2.56,0,0,1,1.4-2.62,10.38,10.38,0,0,1,3.8-.48H251Z" transform="translate(-14.17 -21.15)" fill="#fbd111"/>
      <path d="M297.57,67.41H288V64.35c0-2.51-.25-4.13-.74-4.86s-1.47-1.1-2.93-1.1h-4.85V90.74H269.31V51h17.44c4.05,0,6.8.71,8.25,2.1q2.56,2.51,2.57,9.42Z" transform="translate(-14.17 -21.15)" fill="#022d3d"/>
      <path d="M180.5,50.08A20.82,20.82,0,1,0,201.31,70.9,20.82,20.82,0,0,0,180.5,50.08Zm0,32.23A11.41,11.41,0,1,1,191.91,70.9,11.42,11.42,0,0,1,180.5,82.31Z" transform="translate(-14.17 -21.15)" fill="#022d3d"/>
      <path d="M180.5,59.49A11.41,11.41,0,1,0,191.91,70.9,11.42,11.42,0,0,0,180.5,59.49Zm0,21.73A10.32,10.32,0,1,1,190.82,70.9,10.33,10.33,0,0,1,180.5,81.22Z" transform="translate(-14.17 -21.15)" fill="#fbd111"/>
    </g>
    <g>
      <path d="M121,100.74a8.5,8.5,0,0,1,2.81.3,3.11,3.11,0,0,1-.09,5.73A6,6,0,0,1,122,107c-.28,0-.67,0-.88,0h-.59v3.71h-1.91v-10Zm.19,4.61a8.15,8.15,0,0,0,1.21,0,1.32,1.32,0,0,0,1.31-1.42,1.37,1.37,0,0,0-.67-1.28,3.87,3.87,0,0,0-1.76-.24h-.7v3Z" transform="translate(-14.17 -21.15)" fill="#022d3d"/>
      <path d="M142.4,100.74a6,6,0,0,1,3.12.48,3,3,0,0,1-.34,5.34l2.28,4.13h-2.22l-2-3.8h-1.37v3.8h-1.91v-10Zm.12,4.52a4.56,4.56,0,0,0,1.63-.16,1.42,1.42,0,0,0,.19-2.48c-.39-.22-.65-.25-2-.25h-.55v2.89Z" transform="translate(-14.17 -21.15)" fill="#022d3d"/>
      <path d="M169.85,105.71c0,3.13-1.78,5.17-4.49,5.17s-4.49-2-4.49-5.17a5.45,5.45,0,0,1,1.43-4,4.38,4.38,0,0,1,3.06-1.19C168.07,100.55,169.85,102.59,169.85,105.71Zm-7,0c0,2.2.94,3.53,2.51,3.53s2.5-1.33,2.5-3.53-.94-3.52-2.5-3.52S162.85,103.52,162.85,105.71Z" transform="translate(-14.17 -21.15)" fill="#022d3d"/>
      <path d="M184.81,100.74l2.08,4,2.06-4h2.1l-3.23,6v3.92h-1.91v-3.92l-3.23-6Z" transform="translate(-14.17 -21.15)" fill="#022d3d"/>
      <path d="M211,104.72v1.63H207v2.71h4.5v1.63h-6.41v-10h6.25v1.63H207v2.35Z" transform="translate(-14.17 -21.15)" fill="#022d3d"/>
      <path d="M231.56,104a1.82,1.82,0,0,0-1.81-1.78c-1.51,0-2.43,1.35-2.43,3.54s.92,3.5,2.41,3.5c1.16,0,1.79-.73,1.91-2.23h1.7c-.12,2.56-1.31,3.87-3.53,3.87-2.73,0-4.48-2-4.48-5.13a5.41,5.41,0,0,1,1.58-4.17,4.18,4.18,0,0,1,2.81-1,3.26,3.26,0,0,1,3.5,3.43Z" transform="translate(-14.17 -21.15)" fill="#022d3d"/>
      <path d="M254,100.74v1.63h-2.62v8.32h-1.91v-8.32H246.8v-1.63Z" transform="translate(-14.17 -21.15)" fill="#022d3d"/>
      <path d="M276.34,105.71c0,3.13-1.77,5.17-4.49,5.17s-4.49-2-4.49-5.17a5.42,5.42,0,0,1,1.44-4,4.34,4.34,0,0,1,3.05-1.19C274.57,100.55,276.34,102.59,276.34,105.71Zm-7,0c0,2.2.94,3.53,2.5,3.53s2.51-1.33,2.51-3.53-.94-3.52-2.51-3.52S269.35,103.52,269.35,105.71Z" transform="translate(-14.17 -21.15)" fill="#022d3d"/>
      <path d="M295.52,103.67a1.49,1.49,0,0,0-1.65-1.47c-.79,0-1.42.48-1.42,1.08a.87.87,0,0,0,.51.76,6.16,6.16,0,0,0,.67.31l.33.12.31.14.33.11a15.64,15.64,0,0,1,1.67.73,2.51,2.51,0,0,1,1.37,2.36c0,1.88-1.37,3.07-3.55,3.07-2.45,0-3.79-1.24-3.88-3.58h1.85a1.87,1.87,0,0,0,2.05,1.93c.93,0,1.58-.44,1.58-1.06a1.07,1.07,0,0,0-.69-1,3,3,0,0,0-.49-.23l-.4-.18-.42-.17-.41-.16a6,6,0,0,1-2.08-1.22,2.69,2.69,0,0,1-.66-1.78c0-1.73,1.39-2.92,3.42-2.92a3.38,3.38,0,0,1,2.9,1.39,3.06,3.06,0,0,1,.49,1.73Z" transform="translate(-14.17 -21.15)" fill="#022d3d"/>
    </g>
    <circle cx="44.66" cy="9.94" r="9.94" fill="#fbd111"/>
    <circle cx="44.66" cy="29.83" r="7.96" fill="#022d3d"/>
    <circle cx="44.66" cy="49.72" r="9.94" fill="#fbd111"/>
    <circle cx="44.66" cy="69.6" r="7.96" fill="#022d3d"/>
    <circle cx="44.66" cy="89.49" r="9.94" fill="#fbd111"/>
    <circle cx="9.95" cy="29.83" r="9.94" fill="#fbd111"/>
    <circle cx="27.44" cy="39.77" r="7.96" fill="#022d3d"/>
    <circle cx="61.89" cy="59.66" r="7.96" fill="#022d3d"/>
    <circle cx="79.55" cy="69.61" r="9.94" fill="#fbd111"/>
    <circle cx="79.55" cy="29.83" r="9.94" fill="#fbd111"/>
    <circle cx="61.89" cy="39.77" r="7.96" fill="#022d3d"/>
    <circle cx="27.44" cy="59.66" r="7.96" fill="#022d3d"/>
    <circle cx="9.95" cy="69.61" r="9.94" fill="#fbd111"/>
  </g>
</svg>
